<svg xmlns="http://www.w3.org/2000/svg" viewBox="0 0 160 160"><defs><radialGradient id="b" cx="50%" cy="36%"><stop stop-color="#251148"/><stop offset="1" stop-color="#080912"/></radialGradient><linearGradient id="g" x1="0" y1="0" x2="1" y2="1"><stop stop-color="#ffb02e"/><stop offset="1" stop-color="#e45321"/></linearGradient></defs><circle cx="80" cy="80" r="77" fill="url(#b)" stroke="#f59e0b" stroke-width="3"/><circle cx="31" cy="34" r="3" fill="#a78bfa"/><circle cx="128" cy="45" r="2" fill="#fff"/><path d="M40 68c4-25 76-25 80 0H40Z" fill="url(#g)"/><path d="M39 74h82l-8 10H47Z" fill="#5ebc45"/><path d="M45 87h70c5 0 8 5 5 10H40c-3-5 0-10 5-10Z" fill="#f59e0b"/><path d="M43 101h74c3 0 5 4 2 7H41c-3-3-1-7 2-7Z" fill="#e45321"/><text x="80" y="128" text-anchor="middle" fill="#fff" font-family="Arial,sans-serif" font-size="15" font-weight="800">GALÁXIA</text><text x="80" y="143" text-anchor="middle" fill="#f59e0b" font-family="Arial,sans-serif" font-size="12" font-weight="900">BURGER</text></svg>
